<svg xmlns="http://www.w3.org/2000/svg" width="499.3" height="501.3" viewBox="0 0 499.3 501.3"><defs><style>.a{fill:#fff;}.b{fill:#231f20;}</style></defs><title>White M Black BG</title><ellipse cx="249.6" cy="250.6" rx="249.6" ry="250.6"/><path class="a" d="M367.1,374.7V169.7q0-15.7,2.5-50.7h-0.8q-2.9,9.3-5.3,16.2a114.3,114.3,0,0,1-4.4,11.2L255.9,374.7H244.1l-103.4-227q-4.5-10.4-9.3-29.2h-0.8q0.8,9.5,1.1,21.7t0.3,27.1V374.7H105.3V77.7h32.4L238.1,301q3.1,7,6.1,14.4t5.5,15.6h1.2l5.3-15.1q2.4-6.8,5.9-14.7L363.4,77.7h30.7v297h-27Z" transform="translate(-0.7)"/><polyline class="a" points="105.2 384.4 394.1 384.4 394.1 410.6 105.2 410.6"/><polygon class="b" points="394.6 411.1 105.2 411.1 105.2 410.1 393.6 410.1 393.6 384.9 105.2 384.9 105.2 383.9 394.6 383.9 394.6 411.1"/></svg>